:SAMPLES-PER-SECOND 30
:FULLY-SPECIFIED
:DEGREES
100
root  -44.6098 38.629 -5.8099 11.5906 -85.3223 -18.3736
RightUpLeg  4.41113 -3.93844 3.35594
RightLeg  36.9186 -5.72881 -4.8753
RightFoot  -22.155 0.0404349 2.02043
RightToes  0.00048216 0.542163 -0.142577
Spine  26.284 4.27817 13.817
Spine1  6.75282 7.96946 -1.40572
HEad  -7.69471 -11.2405 -6.2325
LeftShoulder1  1.43651 -0.45445 -29.9536
LeftArm  -40.6987 41.5125 -0.802599
LeftForeArm  39.2744 -48.5998 -9.82122
LeftHand  -0.25398 0.0180481 5.50724
RightShoulder  4.47197 7.1717 35.9057
RightArm  -9.0669 -19.636 30.9854
RightForeArm  -1.24455 39.9661 9.46612
RightHand  -0.214026 -3.97124 -15.9702
LeftUpLeg  -32.8545 9.26376 -1.02393
LeftLeg  10.0047 6.64585 -1.19273
LeftFoot  -5.1245 0.366153 -6.20287
LeftToes  1.06246e-005 4.65856e-005 -8.18504e-006
101
root  -47.2661 38.2844 -5.54914 60.1555 -87.03 -66.7477
RightUpLeg  9.34959 -3.82071 3.29197
RightLeg  35.3416 -2.98494 -2.54986
RightFoot  -23.1481 0.107772 2.51795
RightToes  0.00048216 0.542163 -0.142577
Spine  21.25 4.9982 14.7437
Spine1  8.57629 8.9157 -3.40109
HEad  -5.75443 -9.63186 -5.17918
LeftShoulder1  0.251518 2.79024 -27.4291
LeftArm  -41.238 47.3761 0.786269
LeftForeArm  43.4377 -57.2913 -13.7218
LeftHand  -0.25398 0.0180481 5.50724
RightShoulder  4.27393 6.86288 35.258
RightArm  -7.26913 -21.2791 33.5319
RightForeArm  -1.64541 39.5974 9.36863
RightHand  -0.26635 -3.61311 -16.2996
LeftUpLeg  -29.3103 8.09593 1.93091
LeftLeg  7.91 9.443 -2.40828
LeftFoot  -5.24081 0.434082 -7.33929
LeftToes  1.06246e-005 4.65856e-005 -8.18504e-006
102
root  -49.9277 37.865 -5.35034 114.66 -86.5077 -120.272
RightUpLeg  12.6036 -4.57398 0.786957
RightLeg  35.3588 1.51307 0.924734
RightFoot  -22.9603 0.332119 4.82781
RightToes  0.00048216 0.542163 -0.142577
Spine  15.9298 6.06733 13.9878
Spine1  10.1231 9.66556 -4.68596
HEad  -5.09918 -8.42477 -3.75194
LeftShoulder1  -0.548813 5.26319 -25.4514
LeftArm  -42.0839 52.3219 0.329267
LeftForeArm  48.8005 -65.1806 -19.3684
LeftHand  -0.25398 0.0180481 5.50724
RightShoulder  4.1371 6.50521 35.3631
RightArm  -4.49512 -22.92 34.3659
RightForeArm  -1.25241 39.6167 9.35061
RightHand  -0.213938 -3.98905 -16.1558
LeftUpLeg  -28.2829 11.1098 0.455722
LeftLeg  10.372 5.73755 -1.89128
LeftFoot  0.218415 0.529408 -5.6463
LeftToes  1.06246e-005 4.65856e-005 -8.18504e-006
103
root  -52.2939 37.5299 -5.27518 148.175 -85.7165 -152.986
RightUpLeg  12.8793 -4.86756 -3.22598
RightLeg  39.6106 5.82809 4.93132
RightFoot  -18.1957 0.381863 8.82876
RightToes  0.00048216 0.542163 -0.142577
Spine  12.9035 6.8635 11.057
Spine1  10.1004 9.88684 -5.13581
HEad  -6.16031 -7.28521 -2.02532
LeftShoulder1  -0.834904 6.18885 -25.1692
LeftArm  -47.1322 55.7398 -4.41982
LeftForeArm  55.0735 -70.8336 -26.2984
LeftHand  -0.25398 0.0180481 5.50724
RightShoulder  4.31578 6.65172 36.4882
RightArm  -1.77778 -23.8543 33.7011
RightForeArm  -0.661643 39.1492 9.16403
RightHand  -0.169326 -4.28789 -15.7441
LeftUpLeg  -29.8381 15.8946 -3.53962
LeftLeg  15.8321 -0.256305 -0.686742
LeftFoot  8.63936 -0.129822 0.392561
LeftToes  1.06246e-005 4.65856e-005 -8.18504e-006
104
root  -54.1324 37.3572 -5.2842 170.703 -85.4862 -176.089
RightUpLeg  10.2846 -4.62469 -6.68016
RightLeg  48.4908 6.31771 7.17936
RightFoot  -8.6913 -0.338062 12.2415
RightToes  0.00048216 0.542163 -0.142577
Spine  14.1363 6.57756 7.50945
Spine1  8.23654 9.19036 -5.26917
HEad  -8.28374 -6.41252 -0.613249
LeftShoulder1  -0.542179 5.15895 -27.7147
LeftArm  -56.184 55.9273 -13.5778
LeftForeArm  58.2974 -73.3273 -31.144
LeftHand  -0.25398 0.0180481 5.50724
RightShoulder  4.71214 7.26312 37.7287
RightArm  -0.347489 -23.5228 33.2277
RightForeArm  -1.43113 37.2234 8.60991
RightHand  -0.249668 -3.70262 -15.9227
LeftUpLeg  -31.1215 16.4639 -5.5227
LeftLeg  22.8331 -1.20782 -0.0737816
LeftFoot  11.9811 -1.37191 6.43988
LeftToes  1.06246e-005 4.65856e-005 -8.18504e-006
105
root  -55.486 37.3651 -5.2901 -174.592 -85.6633 167.85
RightUpLeg  5.71047 -4.76717 -8.68772
RightLeg  58.7327 3.00733 4.70083
RightFoot  -0.774457 -1.16975 12.7398
RightToes  0.00048216 0.542163 -0.142577
Spine  17.7924 5.47009 5.24465
Spine1  6.24276 7.9709 -5.91281
HEad  -10.9261 -5.84745 -1.08795
LeftShoulder1  0.456446 2.35677 -32.0234
LeftArm  -61.3299 51.5265 -21.856
LeftForeArm  52.7225 -71.0263 -27.4233
LeftHand  -0.25398 0.0180481 5.50724
RightShoulder  4.98359 7.72654 38.3193
RightArm  0.252565 -22.0167 33.7325
RightForeArm  -3.43181 34.4056 7.89633
RightHand  -0.392523 -2.74025 -16.6202
LeftUpLeg  -30.3647 15.0057 -5.80104
LeftLeg  28.4941 0.75578 0.779671
LeftFoot  8.60425 -1.63282 8.92667
LeftToes  1.06246e-005 4.65856e-005 -8.18504e-006
